<?xml version="1.0" encoding="utf-8"?>
<!-- Generator: Adobe Illustrator 27.3.1, SVG Export Plug-In . SVG Version: 6.00 Build 0)  -->
<svg version="1.1" id="Warstwa_1" xmlns="http://www.w3.org/2000/svg" xmlns:xlink="http://www.w3.org/1999/xlink" x="0px" y="0px"
	 viewBox="0 0 841.9 595.3" style="enable-background:new 0 0 841.9 595.3;" xml:space="preserve">
<style type="text/css">
	.st0{fill:#EC6E06;}
</style>
<path class="st0" d="M210.2,207.2L210.2,207.2l58.5,0V372c0,8.9-7.7,16.1-17,16.1s-17-7.2-17-16.1V240.4h-24.4
	c-9.1,0-16.5-7.5-16.5-16.6C193.7,214.6,201.1,207.2,210.2,207.2z M687.1,220.8v153.6c0,28.4-22.8,51.2-51.2,51.2H206
	c-28.4,0-51.2-22.8-51.2-51.2V220.8c0-28.4,22.8-51.2,51.2-51.2h429.8C664.2,169.6,687.1,192.5,687.1,220.8z M447.1,195.2H204.7
	c-13.6,0.7-24.3,11.9-24.3,25.6v153.6c0,14.2,11.4,25.6,25.6,25.6h75.9v-28.7c0-7.1,5.7-12.8,12.8-12.8s12.8,5.7,12.8,12.8V400
	h139.6V195.2z M661.5,220.8c0-14.2-11.4-25.6-25.6-25.6H472.7V400h163.2c14.2,0,25.6-11.4,25.6-25.6V220.8z M643,347.7
	c0.9,21.2-15.6,39.1-36.8,40c-21.2,0.9-39.2-15.6-40-36.8c-0.9-21.2,15.6-39.2,36.8-40C624.2,310,642.1,326.5,643,347.7z
	 M615.5,348.8c-0.3-6-5.3-10.7-11.4-10.5c-6,0.3-10.7,5.3-10.5,11.4s5.3,10.7,11.4,10.5S615.8,354.9,615.5,348.8z M491.2,247.6
	c-0.9-21.2,15.6-39.2,36.8-40c21.2-0.9,39.1,15.6,40,36.8c0.9,21.2-15.6,39.1-36.8,40C510,285.3,492.1,268.8,491.2,247.6z
	 M518.7,246.5c0.3,6,5.3,10.7,11.4,10.4c6-0.3,10.7-5.3,10.5-11.4c-0.3-6-5.3-10.7-11.4-10.5C523.2,235.3,518.5,240.4,518.7,246.5z
	 M330.7,383.5c76.4,19.3,103.3-27.2,103.2-52.4c-0.1-28-14.5-65.1-76.8-58.4l0-36.9h52.8c23.6,0,23.6-28.6,0-28.6h-83.6
	c0,0,0,33.8,0,48.7c0,15.1,0,48.7,0,48.7c31.4-10.4,77.1-11.2,77.1,25.6c0,40-54.2,31.8-62.6,29.4c-12.6-3.6-18.1,2.7-19.6,7.9
	C319.1,374.8,324,381.8,330.7,383.5z M618.7,215.7L490.2,356.4c-6.2,6.8-5.5,17.5,1.4,23.9c7,6.4,17.7,6,23.9-0.7L644,238.9
	c6.2-6.8,5.6-17.5-1.4-23.8C635.6,208.7,624.9,209,618.7,215.7z"/>
</svg>
