<svg xmlns="http://www.w3.org/2000/svg" viewBox="0 0 3646.29 2798.97"><defs><style>.a{fill:#8ac374;stroke:#1d1d1b;stroke-miterlimit:10;}</style></defs><path class="a" d="M3650.67,1439.86c-7.89,191.59-36.45,885.11-533.34,1197.08C3001,2710,2901.93,2735.12,2740.67,2776c-428.1,51.27-757.94,35.74-973.34,13.25-144.81-15.12-242.67-33.89-290-43.59-184.3-37.78-405.19-83.06-633.33-213.34C516.09,2345.08,343.69,2079.59,267.33,1959c-71-112.15-176.22-278.29-226.66-520.79C-35,1074.55,16,550.79,364,266c72.59-59.4,133.36-87.52,223.33-129.15,0,0,480.35-222.23,1241.67-72.85,95.44,18.73,308.51,106,398.78,139.39,56.59,20.93,100.4,33.93,246.22,65.92,230.61,50.58,344.69,69.76,403.33,82.79C3111.22,404,3401.85,566.65,3550.67,819,3668.28,1018.38,3660.14,1209.76,3650.67,1439.86Z" transform="translate(-9.82 -11.83)"/></svg>