<svg xmlns="http://www.w3.org/2000/svg" viewBox="0 0 3626.02 2731.89"><defs><style>.a{fill:#8ac374;stroke:#1d1d1b;stroke-miterlimit:10;}</style></defs><path class="a" d="M2116.34,4533.57" transform="translate(-55.26 -2.84)"/><path class="a" d="M3680.79,3.34H105.65C71.84,133,55.68,241.49,55.77,316.93c.32,285.08,66.51,578.94,66.51,578.94,7.83,34.79,16.45,73,26.78,114.32.84,3.35,16.78,65.47,37.08,132.42,40.11,132.31,90.7,261.58,111,312.57,66.66,157.68,145.28,263.15,199.06,326.11,268.37,314.25,606.74,376.46,889.41,571.77,28.45,19.66,141.66,96.16,305.55,181.7,6.16,3.22,11.88,6,19.1,9.49,324.22,156.07,620.27,170.87,839.75,184.93,88.43,5.67,633.87,35.76,1130.74-158.17Z" transform="translate(-55.26 -2.84)"/></svg>